<?xml version="1.0" encoding="utf-8"?>
<!-- Generator: Adobe Illustrator 25.2.1, SVG Export Plug-In . SVG Version: 6.00 Build 0)  -->
<svg version="1.1" id="Calque_1" xmlns="http://www.w3.org/2000/svg" xmlns:xlink="http://www.w3.org/1999/xlink" x="0px" y="0px"
	 viewBox="0 0 150 32" style="enable-background:new 0 0 150 32;" xml:space="preserve">
<style type="text/css">
	.st0{fill:#FFFFFF;}
	.st1{fill:#E84335;}
</style>
<g>
	<path class="st0" d="M19.5,9.21v22.46h-1.66L4.63,18.06V31.5H0V9.04h1.66l13.21,13.81V9.21H19.5z"/>
	<path class="st0" d="M33.24,14.26c1.64,0,3.14,0.39,4.49,1.18c1.35,0.79,2.45,1.85,3.28,3.19s1.25,2.84,1.25,4.51
		c0,1.66-0.42,3.16-1.25,4.49s-1.92,2.39-3.28,3.18C36.38,31.61,34.88,32,33.24,32c-1.62,0-3.11-0.39-4.48-1.18
		s-2.46-1.85-3.28-3.18c-0.82-1.33-1.23-2.83-1.23-4.49c0-1.66,0.41-3.17,1.23-4.51c0.82-1.34,1.91-2.41,3.28-3.19
		C30.13,14.66,31.62,14.26,33.24,14.26z M33.24,18.36c-0.8,0-1.54,0.19-2.23,0.57c-0.69,0.38-1.24,0.92-1.65,1.63
		s-0.62,1.57-0.62,2.6c0,1.02,0.21,1.89,0.62,2.6c0.41,0.71,0.96,1.25,1.65,1.61c0.69,0.37,1.43,0.55,2.23,0.55s1.54-0.18,2.23-0.55
		c0.69-0.37,1.24-0.9,1.66-1.61c0.42-0.71,0.63-1.57,0.63-2.6c0-1.02-0.21-1.89-0.63-2.6c-0.42-0.71-0.98-1.25-1.66-1.63
		C34.78,18.55,34.04,18.36,33.24,18.36z"/>
	<path class="st0" d="M51.67,9.81v4.89h4.66v3.53h-4.66v7.25c0,0.75,0.17,1.35,0.52,1.78c0.34,0.43,0.86,0.65,1.55,0.65
		c0.6,0,1.11-0.07,1.55-0.2s0.84-0.32,1.21-0.57v3.36c-0.42,0.42-0.95,0.78-1.58,1.06S53.49,32,52.54,32
		c-1.51,0-2.73-0.48-3.68-1.45c-0.94-0.96-1.41-2.29-1.41-3.98v-8.35h-3.03v-2.16c1.06-0.38,2.05-1.09,2.94-2.13
		s1.61-2.42,2.15-4.13H51.67z"/>
	<path class="st0" d="M67.31,14.26c0.91,0,1.83,0.21,2.76,0.63c0.93,0.42,1.71,0.99,2.33,1.7v-1.9h4.23v16.8H72.4v-2.83
		c-0.49,0.91-1.2,1.69-2.13,2.35C69.34,31.67,68.26,32,67.01,32c-1.35,0-2.6-0.34-3.74-1.03c-1.14-0.69-2.06-1.69-2.75-2.99
		c-0.69-1.31-1.03-2.89-1.03-4.76s0.35-3.46,1.05-4.79s1.64-2.36,2.83-3.08C64.56,14.63,65.87,14.26,67.31,14.26z M68.18,18.39
		c-0.89,0-1.65,0.23-2.28,0.68c-0.63,0.45-1.13,1.05-1.48,1.78c-0.35,0.73-0.53,1.52-0.53,2.36c0,1.26,0.38,2.34,1.15,3.23
		c0.77,0.89,1.78,1.33,3.04,1.33c0.75,0,1.46-0.2,2.11-0.6c0.65-0.4,1.19-0.96,1.6-1.68c0.41-0.72,0.62-1.59,0.62-2.61v-2.4
		c-0.6-0.64-1.25-1.15-1.95-1.53C69.76,18.58,69,18.39,68.18,18.39z"/>
	<path class="st1" d="M1.16,4.67h147.69c0.64,0,1.16-0.52,1.16-1.16v0c0-0.64-0.52-1.16-1.16-1.16H1.16C0.52,2.36,0,2.88,0,3.52v0
		C0,4.16,0.52,4.67,1.16,4.67z"/>
	<path class="st1" d="M92.5,8.71c1.4,0,2.61,0.19,3.63,0.58s1.91,0.92,2.66,1.58v4.66c-0.53-0.4-1.09-0.79-1.66-1.16
		s-1.23-0.69-1.95-0.93c-0.72-0.24-1.57-0.37-2.55-0.37c-1.33,0-2.54,0.32-3.63,0.96c-1.09,0.64-1.95,1.51-2.6,2.6
		c-0.64,1.09-0.96,2.33-0.96,3.73c0,1.38,0.32,2.61,0.96,3.71c0.64,1.1,1.51,1.96,2.6,2.6c1.09,0.63,2.3,0.95,3.63,0.95
		c1.49,0,2.73-0.23,3.74-0.68c1.01-0.45,1.92-1.01,2.75-1.68v4.49c-0.75,0.69-1.7,1.24-2.83,1.65C95.16,31.79,93.9,32,92.5,32
		c-1.6,0-3.11-0.28-4.53-0.85s-2.67-1.36-3.76-2.4c-1.09-1.03-1.94-2.26-2.56-3.68c-0.62-1.42-0.93-2.99-0.93-4.72
		c0-1.73,0.31-3.31,0.93-4.72c0.62-1.42,1.48-2.65,2.56-3.68c1.09-1.03,2.34-1.83,3.76-2.4C89.4,8.99,90.91,8.71,92.5,8.71z"/>
	<polygon class="st1" points="109.21,14.7 109.21,31.5 104.98,31.5 104.98,18.29 102.28,18.29 102.28,14.7 	"/>
	<path class="st1" d="M118.76,14.7v2.4c0.51-0.69,1.2-1.33,2.08-1.93s1.88-0.9,3.01-0.9c1.71,0,3.14,0.58,4.29,1.73
		c1.15,1.15,1.73,2.88,1.73,5.19V31.5h-4.23l-0.03-9.75c0-1.13-0.27-1.97-0.82-2.53s-1.29-0.83-2.25-0.83
		c-0.75,0-1.46,0.24-2.11,0.73c-0.65,0.49-1.21,1.06-1.68,1.73V31.5h-4.23V14.7H118.76z"/>
	<path class="st1" d="M142.08,14.26c1.64,0,3.06,0.35,4.24,1.06c1.19,0.71,2.1,1.69,2.73,2.94c0.63,1.25,0.95,2.7,0.95,4.34v1.8
		h-12.18c0.22,1.13,0.78,2.04,1.66,2.73c0.89,0.69,1.97,1.03,3.26,1.03c1.22,0,2.33-0.24,3.33-0.73c1-0.49,1.8-0.99,2.4-1.5
		l-0.03,3.93c-0.53,0.47-1.33,0.94-2.38,1.41S143.84,32,142.58,32c-1.66,0-3.18-0.38-4.54-1.13c-1.36-0.75-2.45-1.79-3.26-3.09
		c-0.81-1.31-1.21-2.81-1.21-4.49c0-1.64,0.37-3.14,1.1-4.49c0.73-1.35,1.74-2.45,3.03-3.28C138.98,14.68,140.44,14.26,142.08,14.26
		z M141.98,17.96c-1.04,0-1.92,0.32-2.63,0.96s-1.2,1.51-1.46,2.6h8.05c-0.09-1.2-0.53-2.09-1.33-2.68
		C143.81,18.25,142.93,17.96,141.98,17.96z"/>
	<path class="st0" d="M106.74,0.66c0.8,0,1.49,0.28,2.06,0.85s0.87,1.24,0.87,2.01c0,0.75-0.29,1.42-0.87,2s-1.26,0.87-2.06,0.87
		c-0.8,0-1.48-0.29-2.05-0.87c-0.57-0.58-0.85-1.24-0.85-2c0-0.78,0.28-1.45,0.85-2.01C105.26,0.94,105.94,0.66,106.74,0.66z"/>
</g>
</svg>
