<?xml version="1.0" encoding="utf-8"?>
<!-- Generator: Adobe Illustrator 25.2.1, SVG Export Plug-In . SVG Version: 6.00 Build 0)  -->
<svg version="1.1" id="Calque_1" xmlns="http://www.w3.org/2000/svg" xmlns:xlink="http://www.w3.org/1999/xlink" x="0px" y="0px"
	 viewBox="0 0 26 30" style="enable-background:new 0 0 26 30;" xml:space="preserve">
<style type="text/css">
	.st0{fill:#FFFFFF;}
	.st1{fill:#E84335;}
</style>
<g>
	<path class="st0" d="M21.36,10.12V30h-1.47L8.19,17.95v11.9H4.09V9.97h1.47l11.69,12.22l0-12.08H21.36z"/>
	<path class="st1" d="M1.02,3.56h23.4c0.57,0,1.02-0.46,1.02-1.02v0c0-0.57-0.46-1.02-1.02-1.02H1.02C0.46,1.51,0,1.97,0,2.53v0
		C0,3.1,0.46,3.56,1.02,3.56z"/>
	<path class="st0" d="M19.29,0c0.71,0,1.32,0.25,1.83,0.75s0.77,1.09,0.77,1.78c0,0.67-0.26,1.26-0.77,1.77S20,5.07,19.29,5.07
		c-0.71,0-1.31-0.26-1.81-0.77s-0.75-1.1-0.75-1.77c0-0.69,0.25-1.28,0.75-1.78S18.59,0,19.29,0z"/>
</g>
</svg>
